# xmcd
#
# Track frame offsets: 
#        150
#        18096
#        34613
#        54041
#        65199
#        82727
#        100440
#        119691
#        137991
#        159966
#        179837
#        197235
#        218274
#        233174
#        252533
#        270278
#        288309
#        306224
#        321617
#        340388
#
# Disc length: 4784 seconds
#
# Revision: 2
# Processed by: cddbd v1.5.1PL2 Copyright (c) Steve Scherf et al.
# Submitted via: ExactAudioCopy v0.95b4
#
DISCID=2512ae14
DTITLE=Rod Stewart - Tonight i'm yours (1981) and Body wishes (1983)
DYEAR=1999
DGENRE=Classic Rock
TTITLE0=Tonight I'm Yours(Don't Hurt Me)
TTITLE1=How Long
TTITLE2=Tora, Tora, Tora(Out With The Boys)
TTITLE3=Tear It Up
TTITLE4=Only A Boy
TTITLE5=Just Like A Woman
TTITLE6=Jealous
TTITLE7=Sonny
TTITLE8=Young Turks
TTITLE9=Never Give Up On A Dream
TTITLE10=Dancin' Alone
TTITLE11=Baby Jane
TTITLE12=Move Me
TTITLE13=Body Wishes
TTITLE14=Sweet Surrender
TTITLE15=What Am I Gonna Do
TTITLE16=Ghetto Blaster
TTITLE17=Ready Now
TTITLE18=Strangers Again
TTITLE19=Satisfied
EXTD=
EXTT0=
EXTT1=
EXTT2=
EXTT3=
EXTT4=
EXTT5=
EXTT6=
EXTT7=
EXTT8=
EXTT9=
EXTT10=
EXTT11=
EXTT12=
EXTT13=
EXTT14=
EXTT15=
EXTT16=
EXTT17=
EXTT18=
EXTT19=
PLAYORDER=
